HIERARCHY
ROOT joint_0
{
	OFFSET 0.000000 0.000000 0.000000
	CHANNELS 6 Xposition Yposition Zposition Zrotation Yrotation Xrotation 
	JOINT joint_1
	{
		OFFSET 7.566162 2.250183 114.799927
		CHANNELS 3 Zrotation Yrotation Xrotation
		JOINT joint_2
		{
			OFFSET -5.201660 -0.414001 104.936035
			CHANNELS 3 Zrotation Yrotation Xrotation
			JOINT joint_3
			{
				OFFSET -6.923584 -0.419739 104.718018
				CHANNELS 3 Zrotation Yrotation Xrotation
				JOINT joint_4
				{
					OFFSET 3.108887 2.881104 149.449951
					CHANNELS 3 Zrotation Yrotation Xrotation
					JOINT joint_5
					{
						OFFSET 19.988770 5.920349 90.786987
						CHANNELS 3 Zrotation Yrotation Xrotation
						End Site
						{
							OFFSET 0.000000 0.000000 0.000000
						}
					}
				}
				JOINT joint_6
				{
					OFFSET 9.283936 -30.015930 84.410034
					CHANNELS 3 Zrotation Yrotation Xrotation
					JOINT joint_7
					{
						OFFSET 47.243164 -155.716736 -23.241089
						CHANNELS 3 Zrotation Yrotation Xrotation
						JOINT joint_8
						{
							OFFSET 31.323730 -15.356873 -268.798950
							CHANNELS 3 Zrotation Yrotation Xrotation
							JOINT joint_9
							{
								OFFSET 28.122314 -2.114624 -262.450012
								CHANNELS 3 Zrotation Yrotation Xrotation
								End Site
								{
									OFFSET 0.000000 0.000000 0.000000
								}
							}
						}
					}
				}
				JOINT joint_10
				{
					OFFSET -5.580566 33.311218 83.498047
					CHANNELS 3 Zrotation Yrotation Xrotation
					JOINT joint_11
					{
						OFFSET -22.773438 160.515381 -27.138062
						CHANNELS 3 Zrotation Yrotation Xrotation
						JOINT joint_12
						{
							OFFSET 27.004395 30.848877 -267.937988
							CHANNELS 3 Zrotation Yrotation Xrotation
							JOINT joint_13
							{
								OFFSET 32.625000 14.824585 -261.518005
								CHANNELS 3 Zrotation Yrotation Xrotation
								End Site
								{
									OFFSET 0.000000 0.000000 0.000000
								}
							}
						}
					}
				}
			}
		}
	}
	JOINT joint_14
	{
		OFFSET 20.623535 -83.447632 -106.174011
		CHANNELS 3 Zrotation Yrotation Xrotation
		JOINT joint_15
		{
			OFFSET 0.661865 -23.563843 -459.915039
			CHANNELS 3 Zrotation Yrotation Xrotation
			JOINT joint_16
			{
				OFFSET -23.461670 -28.727966 -444.760971
				CHANNELS 3 Zrotation Yrotation Xrotation
				JOINT joint_17
				{
					OFFSET 178.992920 54.047363 -80.113001
					CHANNELS 3 Zrotation Yrotation Xrotation
					End Site
					{
						OFFSET 0.000000 0.000000 0.000000
					}
				}
			}
		}
	}
	JOINT joint_18
	{
		OFFSET -19.571533 84.686279 -105.380005
		CHANNELS 3 Zrotation Yrotation Xrotation
		JOINT joint_19
		{
			OFFSET -22.949951 3.639404 -459.933044
			CHANNELS 3 Zrotation Yrotation Xrotation
			JOINT joint_20
			{
				OFFSET -33.690674 4.092651 -445.010971
				CHANNELS 3 Zrotation Yrotation Xrotation
				JOINT joint_21
				{
					OFFSET 187.419678 18.953857 -76.759001
					CHANNELS 3 Zrotation Yrotation Xrotation
					End Site
					{
						OFFSET 0.000000 0.000000 0.000000
					}
				}
			}
		}
	}
}
MOTION
Frames: 13
Frame Time: 0.016667
-3244.993164 907.185913 1112.272949 -16.383109 0.335031 -0.380605 0.709357 -0.545850 2.125598 0.584790 0.028926 -0.394483 0.629579 -0.119516 0.292837 0.070003 1.047990 -0.590215 0.000000 0.000000 0.000000 1.809469 4.309496 0.021556 0.220065 4.574991 0.036954 -0.124538 3.335047 -0.629822 0.000000 0.000000 0.000000 2.149984 4.278151 -3.350447 0.046498 4.030733 -2.845715 0.382353 3.918503 0.258470 0.000000 0.000000 0.000000 0.099412 3.543098 1.701622 0.292958 -2.671839 -0.095318 0.153495 -2.165170 0.721560 0.000000 0.000000 0.000000 2.308289 -0.020934 -0.961521 2.248611 1.036794 0.284561 2.150995 -2.044937 1.086085 0.000000 0.000000 0.000000 
-3243.829346 907.344177 1112.337036 -16.388109 0.496621 -0.441202 0.694674 -0.150547 2.100310 0.566806 -0.008401 -0.407366 0.612729 -0.068910 0.295672 0.079447 0.552015 -0.503662 0.000000 0.000000 0.000000 1.806956 4.446372 0.237112 0.183514 4.535639 -0.348213 -0.079524 2.884721 -0.229527 0.000000 0.000000 0.000000 2.358041 4.295821 -3.649868 0.081915 4.107723 -2.556454 0.317747 3.461136 0.125596 0.000000 0.000000 0.000000 0.096607 3.431220 1.721016 0.288592 -2.684054 -0.061306 0.149732 -2.168915 0.720992 0.000000 0.000000 0.000000 2.315026 -0.133738 -0.923799 2.258446 1.026347 0.277259 2.160157 -2.053966 1.090762 0.000000 0.000000 0.000000 
-3241.549805 907.303406 1112.037964 -16.372638 1.126003 -0.580633 0.653195 -0.017749 2.027078 0.528997 -0.030141 -0.411525 0.574902 -0.006486 0.286517 0.096886 -0.649848 -0.251112 0.000000 0.000000 0.000000 1.937841 4.716668 -0.013247 0.204815 4.884147 -0.399454 0.030801 1.974038 0.651931 0.000000 0.000000 0.000000 2.145170 4.654948 -3.512830 0.106204 4.443901 -2.896884 0.208016 2.410243 0.040759 0.000000 0.000000 0.000000 0.105353 2.901212 1.807633 0.292709 -2.760810 0.013057 0.147056 -2.123312 0.705967 0.000000 0.000000 0.000000 2.302121 -0.649083 -0.817724 2.255532 0.898549 0.247643 2.159200 -1.986650 1.083711 0.000000 0.000000 0.000000 
-3238.444092 907.135681 1111.546021 -16.345315 2.030401 -0.765556 0.596094 -0.027544 1.920485 0.480245 -0.033068 -0.407714 0.525467 0.035477 0.273268 0.130220 -2.233692 0.106069 0.000000 0.000000 0.000000 2.119663 5.076055 -0.460732 0.286089 5.418130 -0.326923 0.187998 0.882185 1.770915 0.000000 0.000000 0.000000 1.740468 5.189836 -3.185730 0.133570 4.920988 -3.514339 0.084220 1.108341 -0.040632 0.000000 0.000000 0.000000 0.103867 2.143757 1.921587 0.284668 -2.893737 0.119342 0.126729 -2.054248 0.675972 0.000000 0.000000 0.000000 2.292066 -1.384653 -0.668627 2.260021 0.693948 0.202806 2.166123 -1.889139 1.076850 0.000000 0.000000 0.000000 
-3234.616943 906.875610 1111.071045 -16.304091 2.956063 -0.948576 0.539933 -0.188199 1.819741 0.437203 -0.009117 -0.389217 0.480883 0.023248 0.260275 0.166424 -3.494616 0.408215 0.000000 0.000000 0.000000 2.282168 5.376928 -0.731888 0.384378 5.806894 -0.352147 0.308236 0.408624 2.608444 0.000000 0.000000 0.000000 1.438670 5.601997 -2.976400 0.157412 5.316837 -3.826763 -0.004362 0.428754 -0.312685 0.000000 0.000000 0.000000 0.014267 1.442970 1.990874 0.192324 -3.103401 0.254193 0.018954 -2.036919 0.622613 0.000000 0.000000 0.000000 2.351782 -2.078301 -0.503154 2.336573 0.470109 0.149630 2.240359 -1.902472 1.108629 0.000000 0.000000 0.000000 
-3229.952393 906.467346 1110.706055 -16.251766 3.881970 -1.121750 0.487248 -0.659286 1.749047 0.409894 0.048690 -0.344688 0.450106 -0.066185 0.241766 0.182101 -4.088634 0.576208 0.000000 0.000000 0.000000 2.459265 5.520829 -0.659324 0.458223 5.897482 -0.529240 0.315654 1.286822 2.819646 0.000000 0.000000 0.000000 1.325307 5.755138 -2.987486 0.154049 5.531541 -3.561249 -0.027757 1.091922 -0.974349 0.000000 0.000000 0.000000 -0.238405 0.870027 1.983840 -0.051900 -3.473603 0.443650 -0.250407 -2.098313 0.521125 0.000000 0.000000 0.000000 2.556638 -2.672534 -0.312367 2.562343 0.198922 0.081925 2.454993 -2.119658 1.218292 0.000000 0.000000 0.000000 
-3224.567139 905.967773 1110.358032 -16.185520 4.835969 -1.294009 0.431811 -1.290276 1.691482 0.389683 0.121939 -0.289388 0.425847 -0.190056 0.220645 0.184193 -4.355652 0.677479 0.000000 0.000000 0.000000 2.644751 5.592995 -0.436895 0.529510 5.854091 -0.775449 0.284873 2.790926 2.772333 0.000000 0.000000 0.000000 1.281574 5.784411 -3.099998 0.156310 5.669733 -2.994024 -0.011194 2.370095 -1.855136 0.000000 0.000000 0.000000 -0.580602 0.345413 1.940534 -0.379270 -3.918366 0.671792 -0.609327 -2.202090 0.392861 0.000000 0.000000 0.000000 2.829906 -3.235311 -0.109108 2.861002 -0.092140 -0.000419 2.736998 -2.439604 1.365699 0.000000 0.000000 0.000000 
-3218.921631 905.589844 1109.954956 -16.099641 5.646537 -1.447669 0.386309 -1.635565 1.633156 0.370623 0.166251 -0.255001 0.404558 -0.261698 0.206284 0.186705 -4.610667 0.763064 0.000000 0.000000 0.000000 2.735601 5.696225 -0.300264 0.589041 5.847722 -1.035849 0.312137 3.531038 3.031240 0.000000 0.000000 0.000000 1.239748 5.810814 -3.226570 0.195531 5.813103 -2.418614 -0.035080 2.946647 -2.602294 0.000000 0.000000 0.000000 -0.865728 -0.085411 1.897512 -0.655631 -4.197735 0.861476 -0.900934 -2.347128 0.307316 0.000000 0.000000 0.000000 3.014582 -3.701754 0.054473 3.069918 -0.256549 -0.076292 2.930994 -2.728909 1.473829 0.000000 0.000000 0.000000 
-3213.529541 905.437256 1109.526978 -16.001779 6.178463 -1.570145 0.367588 -1.424144 1.567830 0.352251 0.164014 -0.261986 0.387344 -0.243480 0.207608 0.196334 -4.973469 0.849158 0.000000 0.000000 0.000000 2.707005 5.817594 -0.263697 0.619023 5.872592 -1.293440 0.390567 3.194463 3.591561 0.000000 0.000000 0.000000 1.132911 5.786032 -3.388990 0.254444 5.907287 -1.955375 -0.098927 2.631968 -2.911932 0.000000 0.000000 0.000000 -1.024295 -0.384033 1.868334 -0.820526 -4.155893 0.954553 -1.046123 -2.530583 0.298486 0.000000 0.000000 0.000000 3.039213 -4.017679 0.163917 3.113290 -0.178058 -0.135513 2.964457 -2.944507 1.508822 0.000000 0.000000 0.000000 
-3207.877197 905.406250 1109.042969 -15.883774 6.563378 -1.673224 0.366719 -0.921682 1.499867 0.332835 0.137769 -0.286227 0.370380 -0.183471 0.215333 0.205843 -5.324686 0.917636 0.000000 0.000000 0.000000 2.578659 5.968320 -0.321021 0.638227 5.935595 -1.556723 0.523549 2.097866 4.441591 0.000000 0.000000 0.000000 1.030114 5.762400 -3.540438 0.340750 6.001871 -1.509055 -0.211479 1.622669 -3.082434 0.000000 0.000000 0.000000 -1.124253 -0.584001 1.832298 -0.934218 -3.950809 0.999473 -1.120235 -2.763510 0.336159 0.000000 0.000000 0.000000 2.977918 -4.230407 0.238479 3.067098 0.028117 -0.181695 2.911159 -3.138707 1.506120 0.000000 0.000000 0.000000 
-3200.889160 905.404602 1108.333008 -15.715786 7.030419 -1.777196 0.360753 -0.485637 1.438081 0.307263 0.101318 -0.301057 0.346200 -0.122637 0.219236 0.209943 -5.617564 0.967070 0.000000 0.000000 0.000000 2.299394 6.300645 -0.664799 0.704732 6.222697 -1.833448 0.824856 -0.235213 6.123142 0.000000 0.000000 0.000000 1.060079 6.008962 -3.516925 0.533598 6.341009 -1.025374 -0.460570 -0.833703 -3.667590 0.000000 0.000000 0.000000 -1.225793 -0.747282 1.774174 -1.044702 -3.814395 1.069743 -1.194640 -3.071710 0.396698 0.000000 0.000000 0.000000 2.891805 -4.427618 0.282315 2.995374 0.166974 -0.207047 2.835428 -3.332917 1.494036 0.000000 0.000000 0.000000 
-3192.184814 905.413757 1107.230957 -15.461204 7.691498 -1.890721 0.331231 -0.250543 1.389843 0.266701 0.059353 -0.300875 0.305208 -0.068459 0.214031 0.203416 -5.838329 1.007459 0.000000 0.000000 0.000000 1.775417 6.985047 -1.189135 0.906132 6.759906 -2.409178 1.411939 -4.157920 8.921601 0.000000 0.000000 0.000000 1.301912 6.613172 -3.486718 1.019737 7.109160 -0.146827 -0.788479 -5.116696 -5.075064 0.000000 0.000000 0.000000 -1.355321 -0.885186 1.682965 -1.169840 -3.895934 1.216918 -1.300782 -3.483266 0.474917 0.000000 0.000000 0.000000 2.789699 -4.668245 0.293594 2.908828 0.159590 -0.198477 2.749088 -3.562669 1.480863 0.000000 0.000000 0.000000 
-3182.143555 905.451233 1105.902954 -15.157494 8.435218 -1.999773 0.297057 -0.080485 1.348528 0.223099 0.009168 -0.294265 0.259967 -0.014660 0.204280 0.189528 -6.008880 1.040323 0.000000 0.000000 0.000000 1.059997 7.937704 -1.759390 1.298582 7.433065 -3.262592 2.255339 -9.493831 12.329298 0.000000 0.000000 0.000000 1.700676 7.385932 -3.530249 1.878570 8.146639 1.114740 -1.013496 -10.737804 -7.127584 0.000000 0.000000 0.000000 -1.487046 -0.985103 1.570508 -1.291915 -4.047528 1.389368 -1.408551 -3.950029 0.569654 0.000000 0.000000 0.000000 2.662376 -4.891791 0.274547 2.797421 0.082427 -0.169873 2.641237 -3.772521 1.456616 0.000000 0.000000 0.000000 
